<svg width="212" height="42" viewBox="0 0 212 42" fill="none" xmlns="http://www.w3.org/2000/svg">
<path fill-rule="evenodd" clip-rule="evenodd" d="M25.0188 3.85938C31.613 6.65231 36.1266 12.5976 36.1266 19.4614C36.1266 26.328 31.6114 32.2734 25.0172 35.0634C18.4244 32.2734 13.9077 26.328 13.9077 19.4614C13.9077 12.5963 18.4244 6.65084 25.0188 3.85938Z" fill="#002ED9"/>
<path fill-rule="evenodd" clip-rule="evenodd" d="M25.0269 3.86187C27.3121 2.64813 29.9189 2 32.6759 2C42.2595 2 50.0394 9.82547 50.0394 19.4653C50.0394 29.1037 42.2595 36.9292 32.6759 36.9292C29.9189 36.9292 27.3121 36.2824 25.0254 35.0673C30.7886 32.2759 34.737 26.3304 34.737 19.4653C34.737 12.6001 30.7901 6.65467 25.0269 3.86187Z" fill="#0099FA"/>
<path fill-rule="evenodd" clip-rule="evenodd" d="M25.014 35.0659C22.7273 36.2811 20.1192 36.9292 17.3635 36.9292H7.11601L2.50376 41.5685C2.08484 41.9899 1.45439 42.1159 0.906032 41.8877C0.357681 41.6595 0 41.122 0 40.5241V4.25387C0 3.00933 1.00345 2 2.24072 2H17.4192C20.1567 2.0084 22.7453 2.65653 25.0153 3.86187C19.2507 6.65333 15.3023 12.5988 15.3023 19.4639C15.3023 26.3305 19.2507 32.2759 25.014 35.0659Z" fill="#1A4DDE"/>
<path d="M56.0268 23V5.54545H62.9132C64.237 5.54545 65.3649 5.7983 66.2967 6.30398C67.2285 6.80398 67.9387 7.5 68.4274 8.39204C68.9217 9.27841 69.1689 10.3011 69.1689 11.4602C69.1689 12.6193 68.9189 13.642 68.4189 14.5284C67.9189 15.4148 67.1944 16.1051 66.2456 16.5994C65.3024 17.0937 64.1603 17.3409 62.8194 17.3409H58.4302V14.3835H62.2228C62.9331 14.3835 63.5183 14.2614 63.9785 14.017C64.4444 13.767 64.791 13.4233 65.0183 12.9858C65.2512 12.5426 65.3677 12.0341 65.3677 11.4602C65.3677 10.8807 65.2512 10.375 65.0183 9.94318C64.791 9.50568 64.4444 9.16761 63.9785 8.92898C63.5126 8.68466 62.9217 8.5625 62.2058 8.5625H59.7172V23H56.0268ZM77.2015 23.2557C75.8777 23.2557 74.7328 22.9744 73.7669 22.4119C72.8066 21.8437 72.0652 21.054 71.5424 20.0426C71.0197 19.0256 70.7583 17.8466 70.7583 16.5057C70.7583 15.1534 71.0197 13.9716 71.5424 12.9602C72.0652 11.9432 72.8066 11.1534 73.7669 10.5909C74.7328 10.0227 75.8777 9.73864 77.2015 9.73864C78.5254 9.73864 79.6674 10.0227 80.6277 10.5909C81.5936 11.1534 82.3379 11.9432 82.8606 12.9602C83.3833 13.9716 83.6447 15.1534 83.6447 16.5057C83.6447 17.8466 83.3833 19.0256 82.8606 20.0426C82.3379 21.054 81.5936 21.8437 80.6277 22.4119C79.6674 22.9744 78.5254 23.2557 77.2015 23.2557ZM77.2186 20.4432C77.8208 20.4432 78.3237 20.2727 78.7271 19.9318C79.1305 19.5852 79.4345 19.1136 79.639 18.517C79.8493 17.9205 79.9544 17.2415 79.9544 16.4801C79.9544 15.7188 79.8493 15.0398 79.639 14.4432C79.4345 13.8466 79.1305 13.375 78.7271 13.0284C78.3237 12.6818 77.8208 12.5085 77.2186 12.5085C76.6106 12.5085 76.0993 12.6818 75.6845 13.0284C75.2754 13.375 74.9657 13.8466 74.7555 14.4432C74.551 15.0398 74.4487 15.7188 74.4487 16.4801C74.4487 17.2415 74.551 17.9205 74.7555 18.517C74.9657 19.1136 75.2754 19.5852 75.6845 19.9318C76.0993 20.2727 76.6106 20.4432 77.2186 20.4432ZM91.9203 23.2557C90.5794 23.2557 89.426 22.9716 88.46 22.4034C87.4998 21.8295 86.7612 21.0341 86.2441 20.017C85.7328 19 85.4771 17.8295 85.4771 16.5057C85.4771 15.1648 85.7356 13.9886 86.2527 12.9773C86.7754 11.9602 87.5169 11.1676 88.4771 10.5994C89.4373 10.0256 90.5794 9.73864 91.9032 9.73864C93.0453 9.73864 94.0453 9.94602 94.9032 10.3608C95.7612 10.7756 96.4402 11.358 96.9402 12.108C97.4402 12.858 97.7157 13.7386 97.7669 14.75H94.3407C94.2441 14.0966 93.9885 13.571 93.5737 13.1733C93.1646 12.7699 92.6277 12.5682 91.9629 12.5682C91.4004 12.5682 90.9089 12.7216 90.4885 13.0284C90.0737 13.3295 89.7498 13.7699 89.5169 14.3494C89.2839 14.929 89.1674 15.6307 89.1674 16.4545C89.1674 17.2898 89.2811 18 89.5083 18.5852C89.7413 19.1705 90.068 19.6165 90.4885 19.9233C90.9089 20.2301 91.4004 20.3835 91.9629 20.3835C92.3777 20.3835 92.7498 20.2983 93.0794 20.1278C93.4146 19.9574 93.6902 19.7102 93.9061 19.3864C94.1277 19.0568 94.2725 18.6619 94.3407 18.2017H97.7669C97.71 19.2017 97.4373 20.0824 96.9487 20.8438C96.4657 21.5994 95.7981 22.1903 94.9458 22.6165C94.0936 23.0426 93.0851 23.2557 91.9203 23.2557ZM103.381 19.233L103.39 14.8778H103.918L108.111 9.90909H112.279L106.645 16.4886H105.785L103.381 19.233ZM100.091 23V5.54545H103.722V23H100.091ZM108.273 23L104.421 17.2983L106.841 14.733L112.526 23H108.273ZM119.487 23.2557C118.14 23.2557 116.981 22.983 116.01 22.4375C115.044 21.8864 114.3 21.108 113.777 20.1023C113.254 19.0909 112.993 17.8949 112.993 16.5142C112.993 15.1676 113.254 13.9858 113.777 12.9688C114.3 11.9517 115.035 11.1591 115.984 10.5909C116.939 10.0227 118.058 9.73864 119.342 9.73864C120.206 9.73864 121.01 9.87784 121.754 10.1562C122.504 10.429 123.157 10.8409 123.714 11.392C124.277 11.9432 124.714 12.6364 125.027 13.4716C125.339 14.3011 125.496 15.2727 125.496 16.3864V17.3835H114.442V15.1335H122.078C122.078 14.6108 121.964 14.1477 121.737 13.7443C121.51 13.3409 121.194 13.0256 120.791 12.7983C120.393 12.5653 119.93 12.4489 119.402 12.4489C118.851 12.4489 118.362 12.5767 117.936 12.8324C117.515 13.0824 117.186 13.4205 116.947 13.8466C116.709 14.267 116.586 14.7358 116.581 15.2528V17.392C116.581 18.0398 116.7 18.5994 116.939 19.071C117.183 19.5426 117.527 19.9062 117.97 20.1619C118.413 20.4176 118.939 20.5455 119.547 20.5455C119.95 20.5455 120.319 20.4886 120.655 20.375C120.99 20.2614 121.277 20.0909 121.515 19.8636C121.754 19.6364 121.936 19.358 122.061 19.0284L125.419 19.25C125.248 20.0568 124.899 20.7614 124.371 21.3636C123.848 21.9602 123.172 22.4261 122.342 22.7614C121.518 23.0909 120.567 23.2557 119.487 23.2557ZM134.828 9.90909V12.6364H126.944V9.90909H134.828ZM128.734 6.77273H132.365V18.9773C132.365 19.3125 132.416 19.5739 132.518 19.7614C132.621 19.9432 132.763 20.071 132.944 20.1449C133.132 20.2187 133.348 20.2557 133.592 20.2557C133.763 20.2557 133.933 20.2415 134.104 20.2131C134.274 20.179 134.405 20.1534 134.496 20.1364L135.067 22.8381C134.885 22.8949 134.629 22.9602 134.3 23.0341C133.97 23.1136 133.569 23.1619 133.098 23.179C132.223 23.2131 131.456 23.0966 130.797 22.8295C130.143 22.5625 129.635 22.1477 129.271 21.5852C128.907 21.0227 128.729 20.3125 128.734 19.4545V6.77273ZM152.372 14.2727C152.372 16.0909 152.048 17.6733 151.4 19.0199C150.753 20.3608 149.861 21.4006 148.724 22.1392C147.594 22.8722 146.292 23.2386 144.821 23.2386C143.349 23.2386 142.045 22.8722 140.909 22.1392C139.778 21.4006 138.889 20.3608 138.241 19.0199C137.599 17.6733 137.278 16.0909 137.278 14.2727C137.278 12.4545 137.599 10.875 138.241 9.53409C138.889 8.1875 139.781 7.14773 140.917 6.41477C142.054 5.67614 143.355 5.30682 144.821 5.30682C146.292 5.30682 147.594 5.67614 148.724 6.41477C149.861 7.14773 150.753 8.1875 151.4 9.53409C152.048 10.875 152.372 12.4545 152.372 14.2727ZM150.821 14.2727C150.821 12.7102 150.559 11.3722 150.037 10.2585C149.514 9.1392 148.801 8.28409 147.898 7.69318C146.994 7.10227 145.969 6.80682 144.821 6.80682C143.679 6.80682 142.656 7.10227 141.753 7.69318C140.849 8.28409 140.133 9.13636 139.605 10.25C139.082 11.3636 138.821 12.7045 138.821 14.2727C138.821 15.8352 139.082 17.1733 139.605 18.2869C140.128 19.4006 140.841 20.2557 141.744 20.8523C142.648 21.4432 143.673 21.7386 144.821 21.7386C145.969 21.7386 146.994 21.4432 147.898 20.8523C148.807 20.2614 149.523 19.4091 150.045 18.2955C150.568 17.1761 150.827 15.8352 150.821 14.2727ZM155.911 27.9091V9.90909H157.385V12.4062H157.564C157.746 12.0142 157.996 11.6136 158.314 11.2045C158.633 10.7898 159.053 10.4403 159.576 10.1562C160.104 9.87216 160.769 9.73011 161.57 9.73011C162.65 9.73011 163.593 10.0142 164.4 10.5824C165.212 11.1449 165.843 11.9347 166.292 12.9517C166.746 13.9631 166.974 15.142 166.974 16.4886C166.974 17.8409 166.746 19.0256 166.292 20.0426C165.843 21.0597 165.212 21.8523 164.4 22.4205C163.593 22.9886 162.655 23.2727 161.587 23.2727C160.797 23.2727 160.135 23.1307 159.601 22.8466C159.073 22.5625 158.644 22.2131 158.314 21.7983C157.991 21.3778 157.741 20.9687 157.564 20.571H157.428V27.9091H155.911ZM157.411 16.4631C157.411 17.5199 157.567 18.4574 157.88 19.2756C158.198 20.0881 158.653 20.7273 159.243 21.1932C159.84 21.6534 160.562 21.8835 161.408 21.8835C162.278 21.8835 163.01 21.6449 163.607 21.1676C164.209 20.6847 164.667 20.0341 164.979 19.2159C165.297 18.3977 165.456 17.4801 165.456 16.4631C165.456 15.4574 165.3 14.5511 164.988 13.7443C164.681 12.9375 164.226 12.2983 163.624 11.8267C163.022 11.3494 162.283 11.1108 161.408 11.1108C160.556 11.1108 159.831 11.3409 159.235 11.8011C158.638 12.2557 158.184 12.8864 157.871 13.6932C157.564 14.4943 157.411 15.4176 157.411 16.4631ZM175.458 9.90909V11.2301H169.211V9.90909H175.458ZM171.162 6.77273H172.688V19.5824C172.688 20.1278 172.782 20.5568 172.969 20.8693C173.157 21.1761 173.401 21.3949 173.702 21.5256C174.003 21.6506 174.324 21.7131 174.665 21.7131C174.864 21.7131 175.035 21.7017 175.177 21.679C175.319 21.6506 175.444 21.6222 175.552 21.5938L175.876 22.9659C175.728 23.0227 175.546 23.0739 175.33 23.1193C175.114 23.1705 174.847 23.196 174.529 23.196C173.972 23.196 173.435 23.0739 172.918 22.8295C172.407 22.5852 171.986 22.2216 171.657 21.7386C171.327 21.2557 171.162 20.6562 171.162 19.9403V6.77273ZM178.92 23V9.90909H180.446V23H178.92ZM179.696 7.65909C179.383 7.65909 179.116 7.55398 178.895 7.34375C178.673 7.12784 178.562 6.86932 178.562 6.56818C178.562 6.26705 178.673 6.01136 178.895 5.80114C179.116 5.58523 179.383 5.47727 179.696 5.47727C180.008 5.47727 180.275 5.58523 180.497 5.80114C180.719 6.01136 180.829 6.26705 180.829 6.56818C180.829 6.86932 180.719 7.12784 180.497 7.34375C180.275 7.55398 180.008 7.65909 179.696 7.65909ZM189.546 23.2727C188.415 23.2727 187.415 22.9858 186.546 22.4119C185.682 21.8381 185.006 21.0455 184.518 20.0341C184.029 19.017 183.785 17.8437 183.785 16.5142C183.785 15.1733 184.029 13.9943 184.518 12.9773C185.006 11.9545 185.682 11.1591 186.546 10.5909C187.415 10.017 188.415 9.73011 189.546 9.73011C190.677 9.73011 191.674 10.017 192.537 10.5909C193.401 11.1648 194.077 11.9602 194.566 12.9773C195.06 13.9943 195.307 15.1733 195.307 16.5142C195.307 17.8437 195.063 19.017 194.574 20.0341C194.086 21.0455 193.407 21.8381 192.537 22.4119C191.674 22.9858 190.677 23.2727 189.546 23.2727ZM189.546 21.8835C190.455 21.8835 191.225 21.6392 191.856 21.1506C192.486 20.6619 192.964 20.0114 193.287 19.1989C193.617 18.3864 193.782 17.4915 193.782 16.5142C193.782 15.5369 193.617 14.6392 193.287 13.821C192.964 13.0028 192.486 12.3466 191.856 11.8523C191.225 11.358 190.455 11.1108 189.546 11.1108C188.643 11.1108 187.873 11.358 187.236 11.8523C186.606 12.3466 186.126 13.0028 185.796 13.821C185.472 14.6392 185.31 15.5369 185.31 16.5142C185.31 17.4915 185.472 18.3864 185.796 19.1989C186.126 20.0114 186.606 20.6619 187.236 21.1506C187.867 21.6392 188.637 21.8835 189.546 21.8835ZM200.155 14.8182V23H198.638V9.90909H200.112V11.9631H200.248C200.555 11.2926 201.032 10.7557 201.68 10.3523C202.334 9.94318 203.14 9.73864 204.101 9.73864C204.981 9.73864 205.754 9.9233 206.419 10.2926C207.089 10.6562 207.609 11.1932 207.979 11.9034C208.354 12.6136 208.541 13.4858 208.541 14.5199V23H207.024V14.6136C207.024 13.5398 206.723 12.6903 206.121 12.0653C205.524 11.4403 204.723 11.1278 203.717 11.1278C203.03 11.1278 202.419 11.2756 201.885 11.571C201.351 11.8665 200.927 12.2926 200.615 12.8494C200.308 13.4006 200.155 14.0568 200.155 14.8182Z" fill="white"/>
<path d="M54.9941 32.0391V31H61.1855V32.0391H58.6895V39H57.4863V32.0391H54.9941ZM62.8579 35.4375V39H61.69V31H62.8423V33.9766H62.9165C63.0571 33.6536 63.272 33.3971 63.5611 33.207C63.8501 33.0169 64.2277 32.9219 64.6939 32.9219C65.1053 32.9219 65.4647 33.0065 65.772 33.1758C66.0819 33.3451 66.3215 33.5977 66.4907 33.9336C66.6626 34.2669 66.7486 34.6836 66.7486 35.1836V39H65.5806V35.3242C65.5806 34.8841 65.4673 34.543 65.2407 34.3008C65.0142 34.056 64.6991 33.9336 64.2954 33.9336C64.0194 33.9336 63.772 33.9922 63.5532 34.1094C63.3371 34.2266 63.1665 34.3984 63.0415 34.625C62.9191 34.849 62.8579 35.1198 62.8579 35.4375ZM70.1231 39.1211C69.5319 39.1211 69.0228 38.9948 68.5957 38.7422C68.1713 38.487 67.8431 38.1289 67.6114 37.668C67.3822 37.2044 67.2676 36.6615 67.2676 36.0391C67.2676 35.4245 67.3822 34.8828 67.6114 34.4141C67.8431 33.9453 68.1661 33.5794 68.5801 33.3164C68.9968 33.0534 69.4838 32.9219 70.0411 32.9219C70.3796 32.9219 70.7077 32.9779 71.0254 33.0898C71.3431 33.2018 71.6283 33.3776 71.8809 33.6172C72.1335 33.8568 72.3327 34.168 72.4786 34.5508C72.6244 34.931 72.6973 35.3932 72.6973 35.9375V36.3516H67.9278V35.4766H71.5528C71.5528 35.1693 71.4903 34.8971 71.3653 34.6602C71.2403 34.4206 71.0645 34.2318 70.8379 34.0937C70.614 33.9557 70.351 33.8867 70.0489 33.8867C69.7207 33.8867 69.4343 33.9674 69.1895 34.1289C68.9473 34.2878 68.7598 34.4961 68.627 34.7539C68.4968 35.0091 68.4317 35.2865 68.4317 35.5859V36.2695C68.4317 36.6706 68.502 37.0117 68.6426 37.293C68.7858 37.5742 68.9851 37.7891 69.2403 37.9375C69.4955 38.0833 69.7937 38.1562 70.1348 38.1562C70.3562 38.1562 70.558 38.125 70.7403 38.0625C70.9226 37.9974 71.0801 37.901 71.2129 37.7734C71.3457 37.6458 71.4473 37.4883 71.5176 37.3008L72.6231 37.5C72.5345 37.8255 72.3757 38.1107 72.1465 38.3555C71.92 38.5977 71.6348 38.7865 71.2911 38.9219C70.9499 39.0547 70.5606 39.1211 70.1231 39.1211ZM76.1339 39H74.8526L77.7315 31H79.1261L82.005 39H80.7237L78.462 32.4531H78.3995L76.1339 39ZM76.3487 35.8672H80.505V36.8828H76.3487V35.8672ZM83.5973 31V39H82.3902V31H83.5973ZM87.402 39H86.1207L88.9996 31H90.3942L93.2731 39H91.9918L89.7301 32.4531H89.6676L87.402 39ZM87.6168 35.8672H91.7731V36.8828H87.6168V35.8672ZM94.7326 35.4375V39H93.5646V33H94.6857V33.9766H94.7599C94.8979 33.6589 95.1141 33.4036 95.4084 33.2109C95.7052 33.0182 96.0789 32.9219 96.5295 32.9219C96.9383 32.9219 97.2964 33.0078 97.6037 33.1797C97.911 33.349 98.1492 33.6016 98.3185 33.9375C98.4878 34.2734 98.5724 34.6888 98.5724 35.1836V39H97.4045V35.3242C97.4045 34.8893 97.2912 34.5495 97.0646 34.3047C96.838 34.0573 96.5268 33.9336 96.131 33.9336C95.8602 33.9336 95.6193 33.9922 95.4084 34.1094C95.2 34.2266 95.0347 34.3984 94.9123 34.625C94.7925 34.849 94.7326 35.1198 94.7326 35.4375ZM101.115 39.1328C100.735 39.1328 100.391 39.0625 100.084 38.9219C99.7764 38.7786 99.5329 38.5716 99.3532 38.3008C99.1761 38.0299 99.0876 37.6979 99.0876 37.3047C99.0876 36.9661 99.1527 36.6875 99.2829 36.4687C99.4131 36.25 99.5889 36.0768 99.8102 35.9492C100.032 35.8216 100.279 35.7253 100.552 35.6602C100.826 35.5951 101.105 35.5456 101.388 35.5117C101.748 35.4701 102.039 35.4362 102.263 35.4102C102.487 35.3815 102.65 35.3359 102.752 35.2734C102.853 35.2109 102.904 35.1094 102.904 34.9687V34.9414C102.904 34.6003 102.808 34.3359 102.615 34.1484C102.425 33.9609 102.141 33.8672 101.763 33.8672C101.37 33.8672 101.06 33.9544 100.834 34.1289C100.61 34.3008 100.455 34.4922 100.369 34.7031L99.2712 34.4531C99.4014 34.0885 99.5915 33.7943 99.8415 33.5703C100.094 33.3437 100.384 33.1797 100.713 33.0781C101.041 32.974 101.386 32.9219 101.748 32.9219C101.987 32.9219 102.241 32.9505 102.509 33.0078C102.78 33.0625 103.033 33.1641 103.267 33.3125C103.504 33.4609 103.698 33.6732 103.849 33.9492C104 34.2227 104.076 34.5781 104.076 35.0156V39H102.935V38.1797H102.888C102.813 38.3307 102.7 38.4792 102.549 38.625C102.397 38.7708 102.203 38.8919 101.966 38.9883C101.73 39.0846 101.446 39.1328 101.115 39.1328ZM101.369 38.1953C101.692 38.1953 101.968 38.1315 102.197 38.0039C102.429 37.8763 102.605 37.7096 102.724 37.5039C102.847 37.2956 102.908 37.0729 102.908 36.8359V36.0625C102.866 36.1042 102.785 36.1432 102.666 36.1797C102.549 36.2135 102.414 36.2435 102.263 36.2695C102.112 36.293 101.965 36.3151 101.822 36.3359C101.679 36.3542 101.559 36.3698 101.463 36.3828C101.236 36.4115 101.029 36.4596 100.841 36.5273C100.657 36.5951 100.508 36.6927 100.396 36.8203C100.287 36.9453 100.232 37.112 100.232 37.3203C100.232 37.6094 100.339 37.8281 100.552 37.9766C100.766 38.1224 101.038 38.1953 101.369 38.1953ZM106.029 31V39H104.862V31H106.029ZM107.569 41.25C107.395 41.25 107.236 41.2357 107.092 41.207C106.949 41.181 106.842 41.1523 106.772 41.1211L107.053 40.1641C107.267 40.2214 107.457 40.2461 107.624 40.2383C107.79 40.2305 107.938 40.168 108.065 40.0508C108.195 39.9336 108.31 39.7422 108.409 39.4766L108.553 39.0781L106.358 33H107.608L109.128 37.6562H109.19L110.71 33H111.964L109.491 39.8008C109.376 40.1133 109.231 40.3776 109.053 40.5938C108.876 40.8125 108.665 40.9766 108.421 41.0859C108.176 41.1953 107.892 41.25 107.569 41.25ZM116.787 34.4648L115.729 34.6523C115.684 34.5169 115.614 34.388 115.518 34.2656C115.424 34.1432 115.296 34.043 115.135 33.9648C114.974 33.8867 114.772 33.8477 114.53 33.8477C114.199 33.8477 113.923 33.9219 113.701 34.0703C113.48 34.2161 113.369 34.4049 113.369 34.6367C113.369 34.8372 113.444 34.9987 113.592 35.1211C113.74 35.2435 113.98 35.3437 114.311 35.4219L115.264 35.6406C115.816 35.7682 116.227 35.9648 116.498 36.2305C116.769 36.4961 116.905 36.8411 116.905 37.2656C116.905 37.625 116.8 37.9453 116.592 38.2266C116.386 38.5052 116.099 38.724 115.729 38.8828C115.362 39.0417 114.936 39.1211 114.451 39.1211C113.78 39.1211 113.231 38.9779 112.807 38.6914C112.382 38.4023 112.122 37.9922 112.026 37.4609L113.155 37.2891C113.225 37.5833 113.369 37.806 113.588 37.957C113.807 38.1055 114.092 38.1797 114.444 38.1797C114.826 38.1797 115.132 38.1003 115.362 37.9414C115.591 37.7799 115.705 37.5833 115.705 37.3516C115.705 37.1641 115.635 37.0065 115.494 36.8789C115.356 36.7513 115.144 36.6549 114.858 36.5898L113.842 36.3672C113.282 36.2396 112.868 36.0365 112.6 35.7578C112.334 35.4792 112.201 35.1263 112.201 34.6992C112.201 34.3451 112.3 34.0352 112.498 33.7695C112.696 33.5039 112.97 33.2969 113.319 33.1484C113.668 32.9974 114.067 32.9219 114.518 32.9219C115.166 32.9219 115.677 33.0625 116.049 33.3437C116.421 33.6224 116.668 33.9961 116.787 34.4648ZM117.419 39V33H118.587V39H117.419ZM118.009 32.0742C117.805 32.0742 117.631 32.0065 117.485 31.8711C117.342 31.7331 117.27 31.569 117.27 31.3789C117.27 31.1862 117.342 31.0221 117.485 30.8867C117.631 30.7487 117.805 30.6797 118.009 30.6797C118.212 30.6797 118.385 30.7487 118.528 30.8867C118.674 31.0221 118.747 31.1862 118.747 31.3789C118.747 31.569 118.674 31.7331 118.528 31.8711C118.385 32.0065 118.212 32.0742 118.009 32.0742ZM123.884 34.4648L122.825 34.6523C122.781 34.5169 122.711 34.388 122.615 34.2656C122.521 34.1432 122.393 34.043 122.232 33.9648C122.07 33.8867 121.868 33.8477 121.626 33.8477C121.296 33.8477 121.019 33.9219 120.798 34.0703C120.577 34.2161 120.466 34.4049 120.466 34.6367C120.466 34.8372 120.54 34.9987 120.689 35.1211C120.837 35.2435 121.077 35.3437 121.408 35.4219L122.361 35.6406C122.913 35.7682 123.324 35.9648 123.595 36.2305C123.866 36.4961 124.001 36.8411 124.001 37.2656C124.001 37.625 123.897 37.9453 123.689 38.2266C123.483 38.5052 123.195 38.724 122.825 38.8828C122.458 39.0417 122.033 39.1211 121.548 39.1211C120.876 39.1211 120.328 38.9779 119.904 38.6914C119.479 38.4023 119.219 37.9922 119.122 37.4609L120.251 37.2891C120.322 37.5833 120.466 37.806 120.685 37.957C120.904 38.1055 121.189 38.1797 121.54 38.1797C121.923 38.1797 122.229 38.1003 122.458 37.9414C122.687 37.7799 122.802 37.5833 122.802 37.3516C122.802 37.1641 122.732 37.0065 122.591 36.8789C122.453 36.7513 122.241 36.6549 121.954 36.5898L120.939 36.3672C120.379 36.2396 119.965 36.0365 119.697 35.7578C119.431 35.4792 119.298 35.1263 119.298 34.6992C119.298 34.3451 119.397 34.0352 119.595 33.7695C119.793 33.5039 120.066 33.2969 120.415 33.1484C120.764 32.9974 121.164 32.9219 121.615 32.9219C122.263 32.9219 122.773 33.0625 123.146 33.3437C123.518 33.6224 123.764 33.9961 123.884 34.4648ZM126.356 32.0391V31H132.547V32.0391H130.051V39H128.848V32.0391H126.356ZM134.709 39.1211C134.146 39.1211 133.655 38.9922 133.236 38.7344C132.817 38.4766 132.491 38.1159 132.26 37.6523C132.028 37.1888 131.912 36.6471 131.912 36.0273C131.912 35.4049 132.028 34.8607 132.26 34.3945C132.491 33.9284 132.817 33.5664 133.236 33.3086C133.655 33.0508 134.146 32.9219 134.709 32.9219C135.271 32.9219 135.762 33.0508 136.181 33.3086C136.601 33.5664 136.926 33.9284 137.158 34.3945C137.39 34.8607 137.506 35.4049 137.506 36.0273C137.506 36.6471 137.39 37.1888 137.158 37.6523C136.926 38.1159 136.601 38.4766 136.181 38.7344C135.762 38.9922 135.271 39.1211 134.709 39.1211ZM134.713 38.1406C135.077 38.1406 135.379 38.0443 135.619 37.8516C135.859 37.6589 136.036 37.4023 136.15 37.082C136.267 36.7617 136.326 36.4089 136.326 36.0234C136.326 35.6406 136.267 35.2891 136.15 34.9687C136.036 34.6458 135.859 34.3867 135.619 34.1914C135.379 33.9961 135.077 33.8984 134.713 33.8984C134.346 33.8984 134.041 33.9961 133.799 34.1914C133.559 34.3867 133.381 34.6458 133.264 34.9687C133.149 35.2891 133.092 35.6406 133.092 36.0234C133.092 36.4089 133.149 36.7617 133.264 37.082C133.381 37.4023 133.559 37.6589 133.799 37.8516C134.041 38.0443 134.346 38.1406 134.713 38.1406ZM140.567 39.1211C140.004 39.1211 139.513 38.9922 139.094 38.7344C138.675 38.4766 138.349 38.1159 138.118 37.6523C137.886 37.1888 137.77 36.6471 137.77 36.0273C137.77 35.4049 137.886 34.8607 138.118 34.3945C138.349 33.9284 138.675 33.5664 139.094 33.3086C139.513 33.0508 140.004 32.9219 140.567 32.9219C141.129 32.9219 141.62 33.0508 142.039 33.3086C142.459 33.5664 142.784 33.9284 143.016 34.3945C143.248 34.8607 143.364 35.4049 143.364 36.0273C143.364 36.6471 143.248 37.1888 143.016 37.6523C142.784 38.1159 142.459 38.4766 142.039 38.7344C141.62 38.9922 141.129 39.1211 140.567 39.1211ZM140.571 38.1406C140.935 38.1406 141.237 38.0443 141.477 37.8516C141.716 37.6589 141.894 37.4023 142.008 37.082C142.125 36.7617 142.184 36.4089 142.184 36.0234C142.184 35.6406 142.125 35.2891 142.008 34.9687C141.894 34.6458 141.716 34.3867 141.477 34.1914C141.237 33.9961 140.935 33.8984 140.571 33.8984C140.203 33.8984 139.899 33.9961 139.657 34.1914C139.417 34.3867 139.239 34.6458 139.121 34.9687C139.007 35.2891 138.95 35.6406 138.95 36.0234C138.95 36.4089 139.007 36.7617 139.121 37.082C139.239 37.4023 139.417 37.6589 139.657 37.8516C139.899 38.0443 140.203 38.1406 140.571 38.1406ZM145.065 31V39H143.897V31H145.065Z" fill="white"/>
</svg>
